<?xml version="1.0" encoding="utf-8"?><svg xmlns="http://www.w3.org/2000/svg" xmlns:xlink="http://www.w3.org/1999/xlink" version="1.1" class="page" pageAlignment="none" x="0px" y="0px" width="512px" height="512px" viewBox="0 0 512 512" enable-background="new 0 0 512 512" xml:space="preserve"><defs/><style type="text/css"/><style type="text/css"/><g type="LAYER" name="workspace" id="workspace" locked="true"/><path transform="matrix(1 0 0 1 99.26218672778816 -20.024893808688862)" width="226" height="195.99999999999994" stroke-width="0.8221333956922686" stroke-miterlimit="3" stroke="none" fill="#333333" d="M181.85937500000023,207.484375 C119.44453125000041,207.484375 68.85937500000034,251.35468749999993 68.85937500000034,305.48437499999994 C68.85937500000034,359.6140624999999 119.44453125000041,403.48437499999994 181.85937500000023,403.48437499999994 C244.2742187500006,403.48437499999994 294.85937500000034,359.6140624999999 294.85937500000034,305.48437499999994 C294.85937500000034,251.35468749999993 244.2742187500006,207.484375 181.85937500000023,207.484375 Z M83.3375000000002,311.6093749999999 L133.9226562500005,311.6093749999999 C134.54062500000032,323.3999999999998 136.83593750000068,336.3390624999999 139.6609375000005,348.3593749999999 L96.31484375000059,348.3593749999999 C88.98750000000041,337.4109374999999 84.39687500000059,324.93124999999986 83.3375000000002,311.6093749999999 Z M133.9226562500005,299.35937499999994 L83.3375000000002,299.35937499999994 C84.39687500000059,286.0375 88.98750000000041,273.55781249999995 96.4031250000005,262.609375 L139.7492187500004,262.609375 C136.9242187500006,274.62968749999993 134.54062500000032,287.56875 133.9226562500005,299.35937499999994 Z M153.8742187500011,262.609375 L209.84453125000107,262.609375 C212.66953125000032,274.70624999999995 214.96484375000034,287.56875 215.6710937500011,299.35937499999994 L148.04765625000107,299.35937499999994 C148.66562500000032,287.56875 151.04921875000014,274.70624999999995 153.8742187500011,262.609375 Z M148.0476562500005,311.6093749999999 L215.6710937500011,311.6093749999999 C215.05312500000025,323.3999999999998 212.75781250000034,336.2625 209.84453125000107,348.3593749999999 L153.8742187500011,348.3593749999999 C151.04921875000014,336.2625 148.66562500000032,323.3999999999998 148.0476562500005,311.6093749999999 Z M229.79609375000064,311.6093749999999 L280.38125000000036,311.6093749999999 C279.3218750000011,324.93124999999986 274.73125000000107,337.4109374999999 267.3156250000011,348.3593749999999 L223.9695312500006,348.3593749999999 C226.88281250000034,336.3390624999999 229.17812500000025,323.3999999999998 229.79609375000064,311.6093749999999 Z M229.79609375000064,299.35937499999994 C229.17812500000025,287.56875 226.88281250000034,274.62968749999993 224.05781250000064,262.609375 L267.4039062500003,262.609375 C274.73125000000107,273.55781249999995 279.3218750000011,286.0375 280.46953125000107,299.35937499999994 L229.79609375000064,299.35937499999994 Z M257.51640625000107,250.35937500000003 L220.8796875000006,250.35937500000003 C217.8781250000011,239.48749999999998 214.87656250000032,230.146875 212.75781250000034,224.09843749999993 C230.4140625000008,229.15156249999998 245.77500000000043,238.33906249999998 257.51640625000107,250.35937500000003 Z M197.57343750000064,220.8828125 C199.6039062500007,226.5484374999999 203.2234375000006,237.34375000000003 206.75468750000107,250.35937500000003 L157.05234375000077,250.35937500000003 C160.58359375000032,237.34375000000003 164.2914062500006,226.5484374999999 166.2335937500011,220.8828125 C171.35390625000014,220.19375 176.56250000000023,219.73437499999994 181.9476562500006,219.73437499999994 C187.24453125000014,219.73437499999994 192.45312500000023,220.19375 197.57343750000064,220.8828125 Z M150.96093750000023,224.09843749999993 C148.84218750000014,230.146875 145.84062500000107,239.48749999999998 142.8390625000004,250.35937500000003 L106.20234375000041,250.35937500000003 C117.94375000000059,238.33906249999998 133.30468750000023,229.15156249999998 150.96093750000023,224.09843749999993 Z M106.20234375000041,360.60937499999966 L142.8390625000004,360.60937499999966 C145.84062500000107,371.48124999999976 148.8421875000006,380.82187499999986 150.96093750000023,386.8703124999998 C133.30468750000023,381.81718749999976 117.94375000000059,372.6296874999998 106.20234375000041,360.60937499999966 Z M166.14531250000107,390.0859374999999 C164.11484375000032,384.42031249999997 160.49531250000064,373.6249999999997 156.9640625000004,360.60937499999966 L206.6664062500007,360.60937499999966 C203.13515625000014,373.6249999999997 199.5156250000008,384.42031249999997 197.48515625000107,390.0859374999999 C192.36484375000032,390.7749999999998 187.15625000000023,391.23437499999983 181.77109375000032,391.23437499999983 C176.38593750000064,391.23437499999983 171.26562500000023,390.7749999999998 166.14531250000107,390.0859374999999 Z M212.75781250000034,386.8703124999998 C214.87656250000032,380.82187499999986 217.8781250000011,371.48124999999976 220.8796875000006,360.60937499999966 L257.51640625000107,360.60937499999966 C245.77500000000043,372.6296874999998 230.4140625000008,381.81718749999976 212.75781250000034,386.8703124999998 Z "/></svg>