<?xml version="1.0" encoding="UTF-8" standalone="no"?>
<!-- Created with Inkscape (http://www.inkscape.org/) -->

<svg
   xmlns:dc="http://purl.org/dc/elements/1.1/"
   xmlns:cc="http://creativecommons.org/ns#"
   xmlns:rdf="http://www.w3.org/1999/02/22-rdf-syntax-ns#"
   xmlns:svg="http://www.w3.org/2000/svg"
   xmlns="http://www.w3.org/2000/svg"
   xmlns:xlink="http://www.w3.org/1999/xlink"
   xmlns:inkscape="http://www.inkscape.org/namespaces/inkscape"
   version="1.0"
   width="587.34375"
   height="587.3125"
   id="svg2">
  <metadata
     id="metadata19">
    <rdf:RDF>
      <cc:Work
         rdf:about="">
        <dc:format>image/svg+xml</dc:format>
        <dc:type
           rdf:resource="http://purl.org/dc/dcmitype/StillImage" />
      </cc:Work>
    </rdf:RDF>
  </metadata>
  <defs
     id="defs4">
    <linearGradient
       x1="112.49854"
       y1="6.1372099"
       x2="112.49853"
       y2="129.3468"
       id="path1082_2_"
       gradientUnits="userSpaceOnUse"
       gradientTransform="translate(287,-83)">
      <stop
         id="stop193"
         style="stop-color:#ffffff;stop-opacity:0"
         offset="0" />
      <stop
         id="stop195"
         style="stop-color:#ffffff;stop-opacity:0.27450982"
         offset="1" />
      <midPointStop
         offset="0"
         style="stop-color:#FFFFFF"
         id="midPointStop197" />
      <midPointStop
         offset="0.5"
         style="stop-color:#FFFFFF"
         id="midPointStop199" />
      <midPointStop
         offset="1"
         style="stop-color:#000000"
         id="midPointStop201" />
    </linearGradient>
    <linearGradient
       x1="541.33502"
       y1="104.50665"
       x2="606.91248"
       y2="303.14029"
       id="linearGradient3272"
       xlink:href="#path1082_2_"
       gradientUnits="userSpaceOnUse"
       gradientTransform="matrix(-1.3917199,0,0,1.3916419,1281.3029,253.69193)" />
    <linearGradient
       x1="541.33502"
       y1="104.50665"
       x2="606.91248"
       y2="303.14029"
       id="linearGradient3505"
       xlink:href="#path1082_2_"
       gradientUnits="userSpaceOnUse"
       gradientTransform="matrix(-1.3917199,0,0,1.3916419,1281.3029,253.69193)" />
  </defs>
  <g
     transform="translate(-78.375,-232.53125)"
     id="layer1">
    <g
       id="g3500">
      <path
         d="m 372,232.53125 c -26.14287,64.09527 -41.95587,106.06004 -71.0625,168.25 17.846,18.91679 39.80115,40.86975 75.375,65.75 C 338.06711,450.79349 311.99602,435.02103 292.5,418.625 255.24908,496.35477 196.80927,607.04145 78.375,819.84375 177.06578,762.86783 252.27232,729.03149 323,718.25 c -1.25627,0.15998 -2.42875,0.25268 -3.40625,0.28125 10e-6,0 -39.12499,2e-5 -39.125,0 10e-6,0 10e-6,-8.34372 0,-8.34375 0.0685,-3e-5 39.08907,0.01 39.1875,0 7.97466,-0.84236 7.03224,-4.82182 7.03125,-6.15625 -10e-6,10e-6 2e-5,-3.25001 0,-3.25 -10e-6,-10e-6 -26.34376,-10e-6 -26.34375,0 -12.25294,-0.1129 -20.0285,-5.44174 -20.125,-11.59375 -0.009,-0.5702 0.27114,-27.54329 0,-27.8125 -10e-6,0 12.37499,10e-6 12.375,0 -10e-6,0 -10e-6,26.96874 0,26.96875 -0.11579,1.46467 0.46211,4.89287 7.25,5 3.46294,0.054 26.72039,-3e-5 26.9375,0 -10e-6,-2e-5 -10e-6,-32.09378 0,-32.09375 -10e-6,-10e-6 12.40624,-3e-5 12.40625,0 0.0569,-10e-6 -9.7e-4,43.7825 0,43.96875 0.054,8.51555 -8.29465,11.76227 -14.875,12.84375 103.31521,-15.34354 197.32339,18.5996 341.40625,101.78125 -18.10627,-33.33494 -34.34768,-63.35014 -49.78125,-91.96875 -24.31035,-18.84217 -49.65173,-43.35845 -101.375,-69.90625 35.55162,9.23779 61.03374,19.89947 80.875,31.8125 C 438.52019,397.62862 425.81043,358.80901 372,232.53125 z m 54.90625,291.75 c 5.48953,0.20065 12.06417,3.85744 15.40625,5.96875 1.36433,0.86211 2.88969,2.6422 4.34375,3.25 2.38227,0.14416 4.7437,0.29336 7.125,0.4375 4.43938,1.05249 8.63603,1.86631 12.125,3.90625 16.39802,9.59218 27.00975,19.3318 36.84375,35.5 2.04842,3.36952 3.1068,7.05667 4.75,10.8125 2.40832,5.50749 5.06227,11.23362 7.78125,16.46875 1.29775,2.49893 2.22356,5.22943 3.90625,7.375 0.71208,0.90639 2.60975,1.17507 3.6875,1.71875 3.20337,1.61693 6.94581,2.87314 9.96875,4.78125 5.45058,3.44035 10.74431,7.55784 15.59375,11.6875 1.85352,1.57852 3.08112,3.88054 4.78125,5.625 0,0.28946 -2e-5,0.61678 0,0.90625 -1.51678,0.43226 -3.04673,0.84801 -4.5625,1.28125 -3.36258,0.86839 -6.2748,0.65806 -9.53125,1.53125 -1.93844,0.51911 -4.39948,1.26362 -6.5,1.5 0.0733,0.0724 0.14639,0.1464 0.21875,0.21875 1.236,3.44748 7.85035,6.31087 10.8125,8.4375 3.71477,2.66595 7.21596,5.8773 9.96875,9.53125 0.93882,0.93882 1.90592,1.9059 2.84375,2.84375 0.63971,0.92627 0.80331,2.14452 1.5,3.03125 0,0.0724 -6e-5,0.11613 0,0.1875 -1.32574,-0.46893 -2.01139,-1.62631 -3.03125,-2.375 -2.06387,-1.51485 -4.16629,-3.22034 -6.28125,-4.5625 -3.58933,-2.27711 -7.74146,-3.57052 -11.46875,-5.84375 -2.0957,-1.27749 -4.10766,-2.86843 -6.0625,-4.34375 -1.78889,-1.35083 -3.78098,-3.92172 -4.96875,-5.84375 -0.61752,-1.00154 -0.75453,-2.21691 -1.53125,-3.03125 0.23059,-1.77151 2.4615,-1.77869 3.875,-2.375 4.97391,-2.09763 10.78958,-2.80022 18.40625,-2.59375 -0.23543,-1.95677 -4.93169,-4.32366 -6.46875,-5.40625 -3.07505,-2.16614 -6.25263,-4.52203 -9.53125,-6.5 -1.71651,-1.03435 -4.71923,-1.85888 -6.53125,-2.625 -2.5849,-1.09205 -8.2454,-2.1264 -9.71875,-4.09375 -2.80103,-3.74264 -4.73688,-8.28375 -6.71875,-12.78125 -1.98571,-4.50768 -4.5037,-9.26541 -6.5,-13.875 -0.98899,-2.28588 -1.47064,-4.31379 -2.59375,-6.46875 -6.98183,-13.38472 -17.17273,-24.61797 -29.65625,-32.5 -4.09782,-2.5874 -8.62153,-4.96977 -13.65625,-6.5 -2.84831,-0.86493 -6.29472,-0.39283 -9.34375,-1.09375 -0.64936,0 -1.28814,-6e-5 -1.9375,0 -1.70685,-0.50135 -3.11867,-2.28211 -4.53125,-3.21875 -2.9419,-1.94865 -5.83895,-3.33868 -9.3125,-4.78125 -1.30837,-0.54371 -4.80622,-1.84362 -6.0625,-0.875 -0.73716,0.24315 -1.079,0.5671 -1.3125,1.3125 -0.73427,1.1043 -0.0575,2.83205 0.4375,3.90625 1.39135,3.02362 3.42311,4.84398 5.21875,7.34375 1.62195,2.25664 3.5825,4.83654 4.75,7.375 2.44306,5.3096 3.52322,11.18449 5.84375,16.4375 0.89155,2.01735 2.18065,4.31549 3.46875,6.0625 1.0411,1.41334 2.87405,2.49407 3.4375,4.34375 1.18101,1.85342 -1.69823,8.1814 -2.34375,10.1875 -2.49515,7.75477 -1.992,18.60665 0.84375,25.34375 1.12022,2.66372 2.20255,5.77247 5.21875,6.5 0.22289,-0.17368 0.0261,-0.0827 0.40625,-0.21875 0.64165,-5.18831 0.8921,-10.1786 2.625,-14.28125 1.08356,-2.56666 3.13027,-4.35749 4.53125,-6.53125 1.02759,0.59263 1.0382,2.35612 1.53125,3.5 1.27942,2.9663 2.60725,6.17931 4.125,9.09375 3.17732,6.10427 6.64741,11.95456 10.59375,17.3125 1.40197,1.9037 3.27348,3.96352 4.96875,5.625 0.71981,0.70628 1.59277,1.05848 2.15625,1.9375 0.0724,0 0.17667,-10e-6 0.25,0 0,0.0733 0,0.14637 0,0.21875 -2.90909,-0.99382 -4.68743,-3.89459 -6.9375,-5.59375 -4.33904,-3.2767 -9.45879,-8.16566 -12.34375,-12.8125 -1.29968,-2.59831 -2.60658,-5.18247 -3.90625,-7.78125 0,-0.0726 -10e-6,-0.14716 0,-0.21875 -0.54226,0.72366 -0.34809,1.51289 -0.625,2.59375 -1.22442,4.76628 -0.28233,10.16267 -4.5625,11.90625 -4.89287,1.9944 -8.45776,-3.20021 -9.96875,-5.625 -4.92375,-7.89903 -6.1973,-21.17082 -2.8125,-31.84375 0.75164,-2.37079 0.8502,-5.25362 2.1875,-7.125 -0.21614,-1.68101 -1.6083,-2.16158 -2.40625,-3.25 -1.30162,-1.7742 -2.43922,-3.86026 -3.46875,-5.84375 -2.03684,-3.92076 -3.42535,-8.5704 -5,-12.8125 -0.63972,-1.72239 -0.75223,-3.3414 -1.5,-4.96875 -1.13662,-2.47625 -3.19018,-4.95423 -4.78125,-7.15625 -2.26649,-3.13863 -8.60302,-9.1494 -6.0625,-15.34375 1.38309,-3.37343 3.96023,-4.71924 6.9375,-4.875 0.35524,-0.0186 0.69653,-0.0446 1.0625,-0.0312 z m 23.21875,23.5 c 0.78058,0.75569 1.9743,1.28865 2.59375,2.1875 0.46603,0.67473 0.52507,1.37208 1.0625,1.9375 0.007,2.30759 -0.59634,3.80493 -1.9375,4.75 -0.0714,0.0717 -0.14737,0.14707 -0.21875,0.21875 -0.7227,-1.51513 -1.43451,-3.01516 -2.15625,-4.53125 -0.93689,-1.34088 -2.27383,-2.31844 -3.03125,-3.875 -0.0724,0 -0.1776,2e-5 -0.25,0 0,-0.0717 3e-5,-0.14631 0,-0.21875 1.18776,-0.25916 2.34931,-0.49799 3.9375,-0.46875 z M 197.40625,642.875 c 5.33005,0.11695 9.07334,2.6881 11,7.15625 0,0 18.25001,42.09375 18.25,42.09375 0,0 18.81249,-42.09379 18.8125,-42.09375 2.85978,-6.35465 9.18153,-8.8765 18.59375,-5.9375 3.93109,1.19064 5.84374,3.51576 5.84375,8.28125 0,0 -10e-6,48.81252 0,48.8125 0,0 -12.40625,2e-5 -12.40625,0 0,0 0,-48.90627 0,-48.90625 0,0 -19.18749,42.65628 -19.1875,42.65625 -2.26427,5.16303 -5.23593,7 -11.3125,7 -6.07571,0 -9.1742,-1.83694 -11.4375,-7 0,0 -19.1875,-42.65627 -19.1875,-42.65625 0,0 0,48.90627 0,48.90625 0,0 -12.375,2e-5 -12.375,0 0,0 0,-48.81249 0,-48.8125 0,-4.7655 1.9117,-7.0906 5.84375,-8.28125 2.35304,-0.73476 4.49917,-1.11173 6.46875,-1.1875 0.36929,-0.0142 0.73841,-0.039 1.09375,-0.0312 z M 369.46875,644 c 0,0 34.78126,2e-5 34.78125,0 0,0 10e-6,8.28124 0,8.28125 0,0 -35.34373,-10e-6 -35.34375,0 -0.35797,0 -0.86078,0.0937 -1.21875,0.0937 -4.40753,0.39656 -5.71719,1.08351 -6.3125,3.625 -0.11965,0.39656 -0.0937,0.71281 -0.0937,1.03125 0,0 10e-6,5.65622 0,5.65625 0,0.39656 -0.0259,0.69618 0.0937,1.09375 0.59532,3.33556 2.96589,4.87498 7.96875,4.875 0,0 15.03125,-2e-5 15.03125,0 3.69354,0 7.49553,0.61992 10.59375,1.8125 5.83844,2.22306 8.8125,5.55013 8.8125,9.125 0,0 0,9.06247 0,9.0625 0,4.3699 -2.60792,7.72611 -7.96875,10.1875 -3.21689,1.51003 -7.26732,2.34378 -11.4375,2.34375 0,0 -35.59375,3e-5 -35.59375,0 0,0 0,-8.24998 0,-8.25 0,0 34.15623,2e-5 34.15625,0 0.47664,0 0.83585,-0.0625 1.3125,-0.0625 2.38323,-0.1592 4.17707,-0.79671 5.25,-1.75 1.19066,-0.95233 1.78123,-2.06331 1.78125,-2.9375 0,0 -2e-5,-7.21874 0,-7.21875 0,-0.79409 -0.22352,-1.53598 -0.9375,-2.25 -1.19259,-1.42995 -2.84941,-2.11903 -6.78125,-2.4375 -0.357,-0.0801 -0.83489,-0.0937 -1.3125,-0.0937 0,0 -12.90625,2e-5 -12.90625,0 -1.19065,0 -2.3699,-0.0771 -3.5625,-0.15625 -10.60298,-1.11154 -16.90624,-5.87694 -16.90625,-11.4375 0,0 10e-6,-7.25 0,-7.25 0,-6.35466 3.23792,-9.97714 10.625,-12.28125 2.38227,-0.714 4.96492,-1.06248 9.96875,-1.0625 z m 111.625,0 c 0,0 12.40626,2e-5 12.40625,0 0,0 10e-6,42.75003 0,42.75 0,4.36798 2.70132,6.18752 9.96875,6.1875 0,0 32.56254,2e-5 32.5625,0 0,0 4e-5,8.25003 0,8.25 0,0 -32.28125,3e-5 -32.28125,0 -1.19065,0 -2.40312,-0.0772 -3.59375,-0.15625 -12.74887,-0.95329 -19.06252,-5.68893 -19.0625,-14.1875 0,0 -2e-5,-42.84373 0,-42.84375 z m -50.40625,0.125 c 0,2e-5 23.53126,-3e-5 23.53125,0 1.19354,2e-5 2.24395,0.0605 3.4375,0.21875 10.38684,1.43282 15.65625,5.98711 15.65625,13.46875 10e-6,-10e-6 0,29.4375 0,29.4375 10e-6,6.07003 -2.20195,9.3518 -7.34375,11.46875 -10e-6,-2e-5 12.18749,11.00002 12.1875,11 10e-6,0 -14.40625,2e-5 -14.40625,0 -10e-6,0 -9.875,-8.90627 -9.875,-8.90625 -10e-6,3e-5 -9.9375,0.59378 -9.9375,0.59375 10e-6,3e-5 -13.25,3e-5 -13.25,0 -2.26842,3e-5 -4.6539,-0.28404 -7.28125,-1 -7.87917,-2.14877 -11.71876,-6.31047 -11.71875,-13.15625 10e-6,10e-6 -10e-6,-29.43752 0,-29.4375 10e-6,-7.48163 5.27036,-12.03593 15.65625,-13.46875 1.07487,-0.15825 2.26984,-0.21878 3.34375,-0.21875 z m 3.46875,8.28125 c -5.4911,-3e-5 -9.09374,2.38419 -9.09375,6.125 -10e-6,10e-6 10e-6,28.03124 0,28.03125 -10e-6,0.39851 0.13037,0.77239 0.25,1.25 0.71594,3.42243 3.94895,5.34377 8.84375,5.34375 -10e-6,10e-6 11.25001,2e-5 11.25,0 10e-6,10e-6 -10.34374,-9.34373 -10.34375,-9.34375 0,-10e-6 14.40625,2e-5 14.40625,0 -10e-6,-10e-6 9.03126,8.125 9.03125,8.125 1.6615,-0.88575 2.74292,-2.19782 3.125,-3.9375 0.11868,-0.39756 0.12501,-0.82123 0.125,-1.21875 0,10e-6 10e-6,-28.25 0,-28.25 0,-0.3184 -0.006,-0.72649 -0.125,-1.125 -0.7169,-3.18314 -3.94358,-5.00002 -8.71875,-5 10e-6,-3e-5 -18.75,-2e-5 -18.75,0 z m 116.8125,31.1875 c 4.82147,0 9.12502,3.67058 9.125,9.125 0,5.4554 -4.30357,9.12501 -9.125,9.125 -4.82147,0 -9.12504,-3.66959 -9.125,-9.125 0,-5.45443 4.30349,-9.12496 9.125,-9.125 z m 0,1.875 c -3.96852,0 -7.09373,3.11071 -7.09375,7.25 0,4.13931 3.12519,7.25002 7.09375,7.25 3.92125,0 7.09378,-3.11068 7.09375,-7.25 0,-4.1393 -3.17254,-7.25002 -7.09375,-7.25 z M 547.3125,687.5 c 0,0 4.0625,10e-6 4.0625,0 2.58103,0 3.93749,0.88111 3.9375,3 0,1.89887 -1.23725,2.67295 -2.84375,2.84375 0,0 3.00002,4.56246 3,4.5625 0,0 -2.03125,-4e-5 -2.03125,0 0,0 -2.71878,-4.49997 -2.71875,-4.5 0,0 -1.65626,3e-5 -1.65625,0 0,0 -10e-6,4.49996 0,4.5 0,0 -1.74999,-4e-5 -1.75,0 0,0 10e-6,-10.40624 0,-10.40625 z m 1.75,1.46875 c 0,0 -10e-6,2.96875 0,2.96875 0,0 1.87496,0 1.875,0 1.31512,0 2.46878,-0.10262 2.46875,-1.5625 0,-1.21767 -1.26464,-1.4062 -2.3125,-1.40625 0,0 -2.03126,5e-5 -2.03125,0 z"
         inkscape:connector-curvature="0"
         id="path2518"
         style="fill:#00618a;fill-opacity:1;fill-rule:evenodd;stroke:none" />
      <path
         d="M 537.35381,581.60174 C 410.05238,408.81699 380.54527,269.55774 373.07122,236.31047 440.9775,392.93896 440.51368,394.85969 537.35381,581.60174 z"
         inkscape:connector-curvature="0"
         id="path2522"
         style="fill:#ffffff;fill-opacity:0.16568047;fill-rule:evenodd;stroke:none" />
      <path
         d="m 373.12269,235.01934 c -3.26563,8.02809 -6.44708,15.81847 -9.46389,23.22954 -3.34209,8.20985 -6.52024,16.04747 -9.67897,23.73141 -3.15846,7.68403 -6.28882,15.18277 -9.39219,22.58427 -3.10358,7.40183 -6.21549,14.7195 -9.39219,22.0824 -3.17649,7.3626 -6.37278,14.80221 -9.75067,22.36918 -3.37788,7.56721 -6.90382,15.28629 -10.61102,23.30123 -3.70753,8.01502 -7.59335,16.31599 -11.75816,25.02194 -0.57687,1.20582 -1.27704,2.57815 -1.8641,3.79989 17.79107,18.84339 39.69445,40.64821 75.06582,65.38684 -38.14708,-15.69731 -64.18969,-31.39898 -83.66935,-47.7496 -1.01136,2.06468 -1.89761,3.90829 -2.93954,6.02247 -1.37141,2.78287 -3.01802,5.9449 -4.44516,8.81862 -0.72365,1.48377 -1.48328,3.08004 -2.22258,4.58855 -18.42733,37.6003 -42.08376,83.55947 -73.91867,143.10541 74.48501,-41.96601 154.82546,-102.51278 300.76512,-50.40235 -7.31717,-13.85857 -14.04403,-26.8553 -20.36169,-39.07438 -6.31756,-12.21947 -12.1871,-23.66494 -17.63724,-34.48582 -5.44973,-10.82065 -10.48582,-21.02254 -15.19957,-30.68593 -4.7137,-9.66317 -9.08304,-18.78385 -13.19208,-27.5313 -4.10928,-8.74725 -7.97866,-17.16447 -11.61477,-25.23703 -3.63633,-8.07245 -7.1008,-15.80597 -10.39593,-23.44462 -3.29548,-7.63906 -6.45011,-15.13833 -9.53558,-22.58427 -3.08578,-7.44617 -6.09798,-14.87433 -9.10541,-22.36918 -0.76383,-1.90313 -1.53019,-3.89138 -2.29427,-5.80739 -8.5538,-20.05122 -17.22326,-40.7926 -27.38791,-64.66988 z"
         inkscape:connector-curvature="0"
         id="path2520"
         style="fill:url(#linearGradient3505);fill-opacity:1;fill-rule:evenodd;stroke:none" />
    </g>
  </g>
</svg>
